<mxfile host="app.diagrams.net" modified="2022-01-01T21:42:49.906Z" agent="5.0 (X11)" etag="A46pgWfmAHY2ZdtASsm6" version="14.9.8" type="github">
  <diagram id="P9M1zEp0ZCK1OriuUx1H" name="Page-1">
    <mxGraphModel dx="792" dy="529" grid="1" gridSize="10" guides="1" tooltips="1" connect="1" arrows="1" fold="1" page="1" pageScale="1" pageWidth="850" pageHeight="1100" math="0" shadow="0">
      <root>
        <mxCell id="0" />
        <mxCell id="1" parent="0" />
        <mxCell id="tkEbBK-0b4xLNCuqF27Q-1" value="Pedro Nunes da Silva" style="rounded=1;whiteSpace=wrap;html=1;" vertex="1" parent="1">
          <mxGeometry x="80" y="300" width="120" height="60" as="geometry" />
        </mxCell>
        <mxCell id="tkEbBK-0b4xLNCuqF27Q-2" value="Sebastião Nunes da Silva" style="rounded=1;whiteSpace=wrap;html=1;" vertex="1" parent="1">
          <mxGeometry x="520" y="300" width="120" height="60" as="geometry" />
        </mxCell>
        <mxCell id="tkEbBK-0b4xLNCuqF27Q-3" value="&lt;div&gt;Philomena Fereira da Silva&lt;/div&gt;&lt;div&gt;*1893 +?&lt;br&gt;&lt;/div&gt;" style="rounded=1;whiteSpace=wrap;html=1;" vertex="1" parent="1">
          <mxGeometry y="170" width="120" height="60" as="geometry" />
        </mxCell>
        <mxCell id="tkEbBK-0b4xLNCuqF27Q-4" value="&lt;div&gt;Florêncio Nunes da Silva&lt;/div&gt;&lt;div&gt;*1984 +?&lt;br&gt;&lt;/div&gt;" style="rounded=1;whiteSpace=wrap;html=1;" vertex="1" parent="1">
          <mxGeometry x="170" y="170" width="120" height="60" as="geometry" />
        </mxCell>
        <mxCell id="tkEbBK-0b4xLNCuqF27Q-5" value="&lt;div&gt;Clarinda Nunes da Silva&lt;/div&gt;&lt;div&gt;*~1865 +~1940&lt;br&gt;&lt;/div&gt;" style="rounded=1;whiteSpace=wrap;html=1;" vertex="1" parent="1">
          <mxGeometry x="440" y="170" width="120" height="60" as="geometry" />
        </mxCell>
        <mxCell id="tkEbBK-0b4xLNCuqF27Q-6" value="&lt;div&gt;Vicente Ferreira da Silva&lt;/div&gt;&lt;div&gt;*? +~1899&lt;br&gt;&lt;/div&gt;" style="rounded=1;whiteSpace=wrap;html=1;" vertex="1" parent="1">
          <mxGeometry x="611" y="170" width="120" height="60" as="geometry" />
        </mxCell>
        <mxCell id="tkEbBK-0b4xLNCuqF27Q-8" value="Maria Moreira da Silva" style="rounded=1;whiteSpace=wrap;html=1;" vertex="1" parent="1">
          <mxGeometry x="85" y="50" width="120" height="60" as="geometry" />
        </mxCell>
        <mxCell id="tkEbBK-0b4xLNCuqF27Q-9" value="Francisco Nunes de Freitas" style="rounded=1;whiteSpace=wrap;html=1;" vertex="1" parent="1">
          <mxGeometry x="255" y="50" width="120" height="60" as="geometry" />
        </mxCell>
        <mxCell id="tkEbBK-0b4xLNCuqF27Q-12" value="" style="endArrow=none;html=1;exitX=1;exitY=0.5;exitDx=0;exitDy=0;entryX=0;entryY=0.5;entryDx=0;entryDy=0;" edge="1" parent="1" source="tkEbBK-0b4xLNCuqF27Q-3" target="tkEbBK-0b4xLNCuqF27Q-4">
          <mxGeometry width="50" height="50" relative="1" as="geometry">
            <mxPoint x="120" y="225" as="sourcePoint" />
            <mxPoint x="170" y="175" as="targetPoint" />
          </mxGeometry>
        </mxCell>
        <mxCell id="tkEbBK-0b4xLNCuqF27Q-14" value="" style="endArrow=none;html=1;" edge="1" parent="1">
          <mxGeometry width="50" height="50" relative="1" as="geometry">
            <mxPoint x="143" y="280" as="sourcePoint" />
            <mxPoint x="143" y="200" as="targetPoint" />
          </mxGeometry>
        </mxCell>
        <mxCell id="tkEbBK-0b4xLNCuqF27Q-16" value="" style="endArrow=none;html=1;exitX=1;exitY=0.5;exitDx=0;exitDy=0;entryX=0;entryY=0.5;entryDx=0;entryDy=0;" edge="1" parent="1">
          <mxGeometry width="50" height="50" relative="1" as="geometry">
            <mxPoint x="560" y="200" as="sourcePoint" />
            <mxPoint x="610" y="200" as="targetPoint" />
          </mxGeometry>
        </mxCell>
        <mxCell id="tkEbBK-0b4xLNCuqF27Q-17" value="" style="endArrow=none;html=1;" edge="1" parent="1">
          <mxGeometry width="50" height="50" relative="1" as="geometry">
            <mxPoint x="583" y="280" as="sourcePoint" />
            <mxPoint x="583" y="200" as="targetPoint" />
          </mxGeometry>
        </mxCell>
        <mxCell id="tkEbBK-0b4xLNCuqF27Q-18" value="" style="endArrow=none;html=1;exitX=1;exitY=0.5;exitDx=0;exitDy=0;entryX=0;entryY=0.5;entryDx=0;entryDy=0;" edge="1" parent="1">
          <mxGeometry width="50" height="50" relative="1" as="geometry">
            <mxPoint x="205" y="80" as="sourcePoint" />
            <mxPoint x="255" y="80" as="targetPoint" />
          </mxGeometry>
        </mxCell>
        <mxCell id="tkEbBK-0b4xLNCuqF27Q-19" value="" style="endArrow=none;html=1;" edge="1" parent="1">
          <mxGeometry width="50" height="50" relative="1" as="geometry">
            <mxPoint x="228" y="160" as="sourcePoint" />
            <mxPoint x="228" y="80" as="targetPoint" />
          </mxGeometry>
        </mxCell>
      </root>
    </mxGraphModel>
  </diagram>
</mxfile>
